<mxfile host="app.diagrams.net" modified="2021-11-29T00:01:32.149Z" agent="5.0 (Windows)" etag="wx47G-GfA0ombEogSzLe" version="15.8.2" type="github">
  <diagram id="KT-87yykqK8TVKUzaxC3" name="Page-1">
    <mxGraphModel dx="211" dy="-1774" grid="1" gridSize="10" guides="1" tooltips="1" connect="1" arrows="1" fold="1" page="1" pageScale="1" pageWidth="827" pageHeight="1169" math="0" shadow="0">
      <root>
        <mxCell id="0" />
        <mxCell id="1" parent="0" />
        <mxCell id="LN7OU6Dx7ajpe7y_HlBM-1" value="" style="edgeStyle=orthogonalEdgeStyle;html=1;verticalAlign=bottom;endArrow=open;endSize=8;strokeColor=#000000;rounded=0;" parent="1" edge="1">
          <mxGeometry relative="1" as="geometry">
            <mxPoint x="960" y="2510" as="targetPoint" />
            <mxPoint x="959.5" y="2481.33" as="sourcePoint" />
            <Array as="points">
              <mxPoint x="959.5" y="2509.66" />
              <mxPoint x="959.5" y="2509.66" />
            </Array>
          </mxGeometry>
        </mxCell>
        <mxCell id="LN7OU6Dx7ajpe7y_HlBM-2" value="" style="endArrow=none;dashed=1;html=1;dashPattern=1 3;strokeWidth=2;rounded=0;" parent="1" edge="1">
          <mxGeometry width="50" height="50" relative="1" as="geometry">
            <mxPoint x="1245" y="2520.5" as="sourcePoint" />
            <mxPoint x="1415" y="2520" as="targetPoint" />
          </mxGeometry>
        </mxCell>
        <mxCell id="LN7OU6Dx7ajpe7y_HlBM-3" value="" style="edgeStyle=orthogonalEdgeStyle;html=1;verticalAlign=bottom;endArrow=open;endSize=8;strokeColor=#000000;rounded=0;" parent="1" edge="1">
          <mxGeometry relative="1" as="geometry">
            <mxPoint x="1254.5" y="2650" as="targetPoint" />
            <mxPoint x="1255" y="2590" as="sourcePoint" />
            <Array as="points">
              <mxPoint x="1254.5" y="2628.33" />
              <mxPoint x="1254.5" y="2628.33" />
            </Array>
          </mxGeometry>
        </mxCell>
        <mxCell id="LN7OU6Dx7ajpe7y_HlBM-4" value="Receive confirmation neighbourhood Node weights are adjusted" style="rounded=1;whiteSpace=wrap;html=1;arcSize=40;fontColor=#000000;fillColor=#FFFFFF;strokeColor=#000000;" parent="1" vertex="1">
          <mxGeometry x="1085" y="2650" width="350" height="40" as="geometry" />
        </mxCell>
        <mxCell id="LN7OU6Dx7ajpe7y_HlBM-5" value="" style="edgeStyle=orthogonalEdgeStyle;html=1;verticalAlign=bottom;endArrow=open;endSize=8;strokeColor=#000000;rounded=0;entryX=0.5;entryY=0;entryDx=0;entryDy=0;" parent="1" target="LN7OU6Dx7ajpe7y_HlBM-6" edge="1">
          <mxGeometry relative="1" as="geometry">
            <mxPoint x="1250" y="2600" as="targetPoint" />
            <mxPoint x="1255" y="2690" as="sourcePoint" />
            <Array as="points">
              <mxPoint x="1255" y="2690" />
            </Array>
          </mxGeometry>
        </mxCell>
        <mxCell id="LN7OU6Dx7ajpe7y_HlBM-7" value="" style="edgeStyle=orthogonalEdgeStyle;html=1;verticalAlign=bottom;endArrow=open;endSize=8;strokeColor=#000000;rounded=0;entryX=1;entryY=0.5;entryDx=0;entryDy=0;startArrow=none;" parent="1" source="LN7OU6Dx7ajpe7y_HlBM-6" target="LN7OU6Dx7ajpe7y_HlBM-9" edge="1">
          <mxGeometry relative="1" as="geometry">
            <mxPoint x="1250" y="2751.67" as="targetPoint" />
            <mxPoint x="1250" y="2640" as="sourcePoint" />
            <Array as="points">
              <mxPoint x="1250" y="2880" />
            </Array>
          </mxGeometry>
        </mxCell>
        <mxCell id="LN7OU6Dx7ajpe7y_HlBM-8" value="" style="edgeStyle=orthogonalEdgeStyle;html=1;verticalAlign=bottom;endArrow=open;endSize=8;strokeColor=#000000;rounded=0;exitX=1;exitY=0.5;exitDx=0;exitDy=0;entryX=1;entryY=0.5;entryDx=0;entryDy=0;" parent="1" source="LN7OU6Dx7ajpe7y_HlBM-6" target="LN7OU6Dx7ajpe7y_HlBM-4" edge="1">
          <mxGeometry relative="1" as="geometry">
            <mxPoint x="1440" y="2560" as="targetPoint" />
            <mxPoint x="1480" y="2580" as="sourcePoint" />
            <Array as="points">
              <mxPoint x="1295" y="2730" />
              <mxPoint x="1480" y="2730" />
              <mxPoint x="1480" y="2670" />
            </Array>
          </mxGeometry>
        </mxCell>
        <mxCell id="LN7OU6Dx7ajpe7y_HlBM-11" value="" style="ellipse;html=1;shape=endState;fillColor=#000000;strokeColor=#ff0000;" parent="1" vertex="1">
          <mxGeometry x="1245" y="2940" width="30" height="30" as="geometry" />
        </mxCell>
        <mxCell id="LN7OU6Dx7ajpe7y_HlBM-12" value="" style="edgeStyle=orthogonalEdgeStyle;html=1;verticalAlign=bottom;endArrow=open;endSize=8;strokeColor=#000000;rounded=0;entryX=0;entryY=0.5;entryDx=0;entryDy=0;exitX=0.5;exitY=1;exitDx=0;exitDy=0;" parent="1" source="LN7OU6Dx7ajpe7y_HlBM-9" target="LN7OU6Dx7ajpe7y_HlBM-11" edge="1">
          <mxGeometry relative="1" as="geometry">
            <mxPoint x="1130" y="2954.4099999999994" as="targetPoint" />
            <mxPoint x="950" y="2910" as="sourcePoint" />
            <Array as="points">
              <mxPoint x="950" y="2955" />
            </Array>
          </mxGeometry>
        </mxCell>
        <mxCell id="LN7OU6Dx7ajpe7y_HlBM-13" value="" style="edgeStyle=orthogonalEdgeStyle;html=1;verticalAlign=bottom;endArrow=open;endSize=8;strokeColor=#000000;rounded=0;" parent="1" edge="1">
          <mxGeometry relative="1" as="geometry">
            <mxPoint x="960" y="2580" as="targetPoint" />
            <mxPoint x="960" y="2551.33" as="sourcePoint" />
            <Array as="points">
              <mxPoint x="960.5" y="2551.67" />
              <mxPoint x="960.5" y="2551.67" />
            </Array>
          </mxGeometry>
        </mxCell>
        <mxCell id="LN7OU6Dx7ajpe7y_HlBM-14" value="" style="edgeStyle=orthogonalEdgeStyle;html=1;verticalAlign=bottom;endArrow=open;endSize=8;strokeColor=#000000;rounded=0;" parent="1" edge="1">
          <mxGeometry relative="1" as="geometry">
            <mxPoint x="1159.5" y="2510" as="targetPoint" />
            <mxPoint x="1159.5" y="2481.33" as="sourcePoint" />
            <Array as="points">
              <mxPoint x="1159" y="2509.66" />
              <mxPoint x="1159" y="2509.66" />
            </Array>
          </mxGeometry>
        </mxCell>
        <mxCell id="LN7OU6Dx7ajpe7y_HlBM-15" value="" style="edgeStyle=orthogonalEdgeStyle;html=1;verticalAlign=bottom;endArrow=open;endSize=8;strokeColor=#000000;rounded=0;" parent="1" edge="1">
          <mxGeometry relative="1" as="geometry">
            <mxPoint x="1163.25" y="2578.67" as="targetPoint" />
            <mxPoint x="1163.25" y="2550" as="sourcePoint" />
            <Array as="points">
              <mxPoint x="1162.75" y="2578.33" />
              <mxPoint x="1162.75" y="2578.33" />
            </Array>
          </mxGeometry>
        </mxCell>
        <mxCell id="LN7OU6Dx7ajpe7y_HlBM-16" value="" style="edgeStyle=orthogonalEdgeStyle;html=1;verticalAlign=bottom;endArrow=open;endSize=8;strokeColor=#000000;rounded=0;" parent="1" edge="1">
          <mxGeometry relative="1" as="geometry">
            <mxPoint x="1519" y="2510" as="targetPoint" />
            <mxPoint x="1519" y="2481.33" as="sourcePoint" />
            <Array as="points">
              <mxPoint x="1518.5" y="2509.66" />
              <mxPoint x="1518.5" y="2509.66" />
            </Array>
          </mxGeometry>
        </mxCell>
        <mxCell id="LN7OU6Dx7ajpe7y_HlBM-17" value="" style="edgeStyle=orthogonalEdgeStyle;html=1;verticalAlign=bottom;endArrow=open;endSize=8;strokeColor=#000000;rounded=0;entryX=1.096;entryY=0.916;entryDx=0;entryDy=0;entryPerimeter=0;" parent="1" edge="1">
          <mxGeometry relative="1" as="geometry">
            <mxPoint x="1518.4300000000003" y="2580.00032" as="targetPoint" />
            <mxPoint x="1518.75" y="2550.8" as="sourcePoint" />
            <Array as="points">
              <mxPoint x="1518" y="2560" />
              <mxPoint x="1518" y="2560" />
            </Array>
          </mxGeometry>
        </mxCell>
        <mxCell id="LN7OU6Dx7ajpe7y_HlBM-18" value="[All nodes in neighbourhood not confirmed that weights are adjusted]" style="text;html=1;strokeColor=none;fillColor=none;align=center;verticalAlign=middle;whiteSpace=wrap;rounded=0;labelBackgroundColor=#FFFFFF;" parent="1" vertex="1">
          <mxGeometry x="1300" y="2750" width="180" height="30" as="geometry" />
        </mxCell>
        <mxCell id="LN7OU6Dx7ajpe7y_HlBM-19" value="[All nodes in neighbourhood not confirmed that weights are adjusted]" style="text;html=1;strokeColor=none;fillColor=none;align=center;verticalAlign=middle;whiteSpace=wrap;rounded=0;labelBackgroundColor=#FFFFFF;" parent="1" vertex="1">
          <mxGeometry x="1025" y="2790" width="180" height="30" as="geometry" />
        </mxCell>
        <mxCell id="LN7OU6Dx7ajpe7y_HlBM-20" value="[Termination criteria reached]" style="text;html=1;strokeColor=none;fillColor=none;align=center;verticalAlign=middle;whiteSpace=wrap;rounded=0;labelBackgroundColor=#FFFFFF;" parent="1" vertex="1">
          <mxGeometry x="1010" y="2910" width="180" height="30" as="geometry" />
        </mxCell>
        <mxCell id="LN7OU6Dx7ajpe7y_HlBM-21" value="&lt;span style=&quot;text-align: left&quot;&gt;Node 1 : Adjust weights&lt;/span&gt;" style="rounded=1;whiteSpace=wrap;html=1;arcSize=40;fontColor=#000000;fillColor=#FFFFFF;strokeColor=#000000;" parent="1" vertex="1">
          <mxGeometry x="867.5" y="2510" width="167.5" height="40" as="geometry" />
        </mxCell>
        <mxCell id="LN7OU6Dx7ajpe7y_HlBM-22" value="&lt;span style=&quot;text-align: left&quot;&gt;Node 2 : Adjust weights&lt;/span&gt;" style="rounded=1;whiteSpace=wrap;html=1;arcSize=40;fontColor=#000000;fillColor=#FFFFFF;strokeColor=#000000;" parent="1" vertex="1">
          <mxGeometry x="1073" y="2510" width="167.5" height="40" as="geometry" />
        </mxCell>
        <mxCell id="LN7OU6Dx7ajpe7y_HlBM-23" value="" style="html=1;points=[];perimeter=orthogonalPerimeter;fillColor=#000000;strokeColor=none;direction=north;" parent="1" vertex="1">
          <mxGeometry x="867.5" y="2470" width="730" height="8.33" as="geometry" />
        </mxCell>
        <mxCell id="LN7OU6Dx7ajpe7y_HlBM-24" value="" style="html=1;points=[];perimeter=orthogonalPerimeter;fillColor=#000000;strokeColor=none;direction=north;" parent="1" vertex="1">
          <mxGeometry x="867.5" y="2580" width="730" height="8.33" as="geometry" />
        </mxCell>
        <mxCell id="LN7OU6Dx7ajpe7y_HlBM-25" value="&lt;span style=&quot;text-align: left&quot;&gt;Node (n) : Adjust weights&lt;/span&gt;" style="rounded=1;whiteSpace=wrap;html=1;arcSize=40;fontColor=#000000;fillColor=#FFFFFF;strokeColor=#000000;" parent="1" vertex="1">
          <mxGeometry x="1430" y="2510" width="167.5" height="40" as="geometry" />
        </mxCell>
        <mxCell id="LN7OU6Dx7ajpe7y_HlBM-9" value="" style="rhombus;whiteSpace=wrap;html=1;" parent="1" vertex="1">
          <mxGeometry x="910" y="2840" width="80" height="80" as="geometry" />
        </mxCell>
        <mxCell id="LN7OU6Dx7ajpe7y_HlBM-6" value="" style="rhombus;whiteSpace=wrap;html=1;" parent="1" vertex="1">
          <mxGeometry x="1215" y="2750" width="80" height="80" as="geometry" />
        </mxCell>
      </root>
    </mxGraphModel>
  </diagram>
</mxfile>
